inDegrees=yes
name=ik_Xsens_4_quaternion - Copie
DataType=double
version=3
OpenSimVersion=4.4-2022-07-23-0e9fedc
endheader
time	r_shoulder_elev	r_elbow_flex
0	0	0
0.01666666666666667	-0.009244828392638986	0.01477301005171571
0.03333333333333333	-0.01474907357260965	0.03650478497865735
0.05	-0.02789407706049804	0.05418387955317291
0.06666666666666667	-0.03207296872379951	0.05910198471471449
0.08333333333333333	-0.04070712766319332	0.07116176351029713
0.1	-0.05273025274473454	0.08758807976668755
0.1166666666666667	-0.06453821419145613	0.1080910830868959
0.1333333333333333	-0.06895654491845449	0.1202564977385728
0.15	-0.08733040189860619	0.1417302881781535
0.1666666666666667	-0.1055793096679239	0.1687375083956673
0.1833333333333333	-0.122652498244052	0.1943397670859215
0.2	-0.1390711020413217	0.2191377400132676
0.2166666666666667	-0.1424131106156535	0.2344051617730766
0.2333333333333333	-0.1846476626125351	0.284022779749967
0.25	-0.1895417054197419	0.2962980773496938
0.2666666666666667	-0.2199393261280071	0.3373541785456426
0.2833333333333333	-0.1884083215908917	0.3151171368500519
0.3	-0.1873872108392181	0.3246887294820176
0.3166666666666667	-0.1805129919375063	0.3283258961345735
0.3333333333333333	-0.1800629541492281	0.339591067473369
0.35	-0.1718136448007715	0.3447786498244916
0.3666666666666666	-0.1176865556768783	0.3033092957044227
0.3833333333333333	-0.1356010977211954	0.3313835112025493
0.4	-0.1713607081765214	0.3779357746897207
0.4166666666666667	-0.2471948094979999	0.466275357990383
0.4333333333333333	-0.2784837871924866	0.5087845058879724
0.45	-0.2430938322853569	0.4869001480854506
0.4666666666666667	-0.2514626286404887	0.5088876601346548
0.4833333333333333	-0.2396888176921401	0.5096734307812816
0.5	-0.2489499826711331	0.5316525221482052
0.5166666666666666	-0.2211873561281191	0.5161339217062824
0.5333333333333333	-0.2401150116666921	0.546283958293674
0.55	-0.2536585798583352	0.5710901309257826
0.5666666666666667	-0.2729458269934357	0.6028919290819312
0.5833333333333334	-0.2727616058348367	0.6150759207035728
0.6	-0.2485084522383825	0.6047647478317686
0.6166666666666667	-0.2763407487874746	0.6452433914762529
0.6333333333333333	-0.3439162115566617	0.7265460588945124
0.65	-0.3907387701482362	0.7861415979303357
0.6666666666666666	-0.4112109328119626	0.8189281372244728
0.6833333333333333	-0.4233797817079247	0.845190268712861
0.7	-0.4322182088537812	0.868166075854314
0.7166666666666667	-0.4077542103403836	0.8566993896929651
0.7333333333333333	-0.4129091313823594	0.8758023098669646
0.75	-0.4118873961781827	0.8857714411918949
0.7666666666666666	-0.5015002849096508	0.986306217659183
0.7833333333333333	-0.4840329509103411	0.981831703880741
0.8	-0.6379900057648945	1.14810841666977
0.8166666666666667	-0.6670134858563151	1.190718528040166
0.8333333333333334	-0.7131177827314407	1.250039205176461
0.85	-0.621825442873976	1.171266123006933
0.8666666666666667	-0.675160612013748	1.237079630339652
0.8833333333333333	-0.6842637440129976	1.258254442703241
0.9	-0.693002604883278	1.279558247944509
0.9166666666666666	-0.7365739135753196	1.336400533781763
0.9333333333333333	-0.7406146761176137	1.35381336557831
0.95	-0.830791938912207	1.456404913956684
0.9666666666666667	-0.8296854256886516	1.467467716864239
0.9833333333333333	-0.8553007300978233	1.505302983423871
1	-0.8712994273925282	1.535204262364487
1.016666666666667	-0.8944738921396376	1.569826513842461
1.033333333333333	-0.9067077454755583	1.595540890827301
1.05	-0.9177379414531855	1.620561674058359
1.066666666666667	-0.9311924066151031	1.64838048498625
1.083333333333333	-0.9434336391482158	1.673940935117387
1.1	-0.9679281349886892	1.71329702418561
1.116666666666667	-0.9856878346896996	1.745449664760032
1.133333333333333	-1.014209349353401	1.787602075870137
1.15	-1.015388949224293	1.802341623587463
1.166666666666667	-1.037033002417473	1.838212565611743
1.183333333333333	-1.063942308924582	1.879248571542645
1.2	-1.069483558405662	1.898983189139145
1.216666666666667	-1.090913564848822	1.935334882939439
1.233333333333333	-1.041958531628212	1.901596742174199
1.25	-0.9850650456813811	1.859069445225967
